<svg width="12" height="12" viewBox="0 0 12 12" fill="none" xmlns="http://www.w3.org/2000/svg">
<g clip-path="url(#clip0_1495_9451)">
<path d="M9.75 4.5C9.60082 4.5 9.45774 4.44074 9.35225 4.33525C9.24676 4.22976 9.1875 4.08668 9.1875 3.9375C9.1875 3.63913 9.06897 3.35298 8.858 3.142C8.64702 2.93103 8.36087 2.8125 8.0625 2.8125C7.91332 2.8125 7.77024 2.75324 7.66475 2.64775C7.55926 2.54226 7.5 2.39918 7.5 2.25C7.5 2.10082 7.55926 1.95774 7.66475 1.85225C7.77024 1.74676 7.91332 1.6875 8.0625 1.6875C8.36087 1.6875 8.64702 1.56897 8.858 1.358C9.06897 1.14702 9.1875 0.860869 9.1875 0.5625C9.1875 0.413316 9.24676 0.270242 9.35225 0.164752C9.45774 0.0592632 9.60082 0 9.75 0C9.89918 0 10.0423 0.0592632 10.1477 0.164752C10.2532 0.270242 10.3125 0.413316 10.3125 0.5625C10.3125 0.860869 10.431 1.14702 10.642 1.358C10.853 1.56897 11.1391 1.6875 11.4375 1.6875C11.5867 1.6875 11.7298 1.74676 11.8352 1.85225C11.9407 1.95774 12 2.10082 12 2.25C12 2.39918 11.9407 2.54226 11.8352 2.64775C11.7298 2.75324 11.5867 2.8125 11.4375 2.8125C11.1391 2.8125 10.853 2.93103 10.642 3.142C10.431 3.35298 10.3125 3.63913 10.3125 3.9375C10.3125 4.08668 10.2532 4.22976 10.1477 4.33525C10.0423 4.44074 9.89918 4.5 9.75 4.5Z" fill="#CDE3C9"/>
<path d="M4.5 12C4.30109 12 4.11032 11.921 3.96967 11.7803C3.82902 11.6397 3.75 11.4489 3.75 11.25C3.75 10.4544 3.43393 9.69129 2.87132 9.12868C2.30871 8.56607 1.54565 8.25 0.75 8.25C0.551088 8.25 0.360322 8.17098 0.21967 8.03033C0.0790176 7.88968 0 7.69891 0 7.5C0 7.30109 0.0790176 7.11032 0.21967 6.96967C0.360322 6.82902 0.551088 6.75 0.75 6.75C1.54565 6.75 2.30871 6.43393 2.87132 5.87132C3.43393 5.30871 3.75 4.54565 3.75 3.75C3.75 3.55109 3.82902 3.36032 3.96967 3.21967C4.11032 3.07902 4.30109 3 4.5 3C4.69891 3 4.88968 3.07902 5.03033 3.21967C5.17098 3.36032 5.25 3.55109 5.25 3.75C5.25 4.54565 5.56607 5.30871 6.12868 5.87132C6.69129 6.43393 7.45435 6.75 8.25 6.75C8.44891 6.75 8.63968 6.82902 8.78033 6.96967C8.92098 7.11032 9 7.30109 9 7.5C9 7.69891 8.92098 7.88968 8.78033 8.03033C8.63968 8.17098 8.44891 8.25 8.25 8.25C7.45435 8.25 6.69129 8.56607 6.12868 9.12868C5.56607 9.69129 5.25 10.4544 5.25 11.25C5.25 11.4489 5.17098 11.6397 5.03033 11.7803C4.88968 11.921 4.69891 12 4.5 12Z" fill="#CDE3C9"/>
</g>
<defs>
<clipPath id="clip0_1495_9451">
<rect width="12" height="12" fill="white"/>
</clipPath>
</defs>
</svg>
