<svg width="123" height="123" viewBox="0 0 123 123" fill="none" xmlns="http://www.w3.org/2000/svg">
<g id="Vector">
<path d="M123 61.5C123 95.4655 95.4655 123 61.5 123C27.5345 123 0 95.4655 0 61.5C0 27.5345 27.5345 0 61.5 0C95.4655 0 123 27.5345 123 61.5Z" fill="#222222"/>
<path d="M82.9432 74.029C82.2866 73.718 81.5024 73.9918 81.1063 74.6005C76.1301 82.3121 69.6546 88.1417 60.8983 85.6801C52.8013 83.402 47.8277 76.4427 46.4002 68.3909C46.4002 68.3909 43.0428 47.0318 57.9157 40.551C59.3671 41.492 61.8819 44.2992 63.2801 46.6331C64.4178 48.5284 65.2658 50.57 66.0154 52.6461C66.268 53.3505 66.5099 54.0576 66.7491 54.7647C67.1851 56.0646 67.6157 57.3804 68.2962 58.5713C70.7205 62.8112 76.4703 63.2445 79.9978 60.1024C80.6837 59.491 81.2738 58.7494 81.7204 57.8775C85.1336 51.2266 81.949 43.5867 74.8302 39.6153C72.0151 38.0018 68.8066 37.0953 65.5848 36.8162C62.9638 36.5902 60.4251 36.7763 58.0194 37.3239C56.4856 36.1304 55.5313 35.4578 55.5313 35.4578C48.6517 30.6437 43.0428 32.034 43.0428 32.034C42.2959 32.1961 41.5675 32.446 40.8711 32.7597C40.2916 33.0229 39.7307 33.3312 39.1964 33.6768C37.083 35.0378 34.8873 37.4595 34.462 39.9609C34.345 40.6467 34.1909 42.2284 34.6587 44.2673C35.3366 47.2206 39.1724 48.0207 40.9907 45.5937C41.8679 44.4214 41.9476 42.8238 41.1714 41.5824C41.0093 41.3219 40.8631 41.0747 40.7461 40.8594C40.0231 39.5303 39.8689 37.6642 40.7594 36.3749C41.2326 35.6917 41.9636 35.2159 42.7371 34.9155C45.3422 33.9001 48.479 34.7507 50.8847 35.9203C51.4775 36.2101 52.0623 36.5238 52.6338 36.8561C52.6338 36.8561 53.208 37.1458 54.8721 38.2782C46.0254 41.6303 39.5765 50.0995 38.6647 60.6394C37.4951 74.1593 46.254 88.6069 60.0423 89.8004C70.1969 90.6803 78.5358 84.763 83.5732 76.0227C83.9799 75.313 83.7034 74.3932 82.9432 74.0317V74.029ZM76.2524 46.3194C76.8877 47.8293 77.1615 49.4721 77.2386 51.1096C77.3157 52.763 77.1695 54.4962 76.4703 56.0167C75.7712 57.5293 74.2534 58.9222 72.4564 58.2789C71.5526 57.9546 70.8508 57.2129 70.3723 56.3809C69.8938 55.5489 69.6121 54.6211 69.317 53.7094C67.5679 48.3211 65.0399 43.2943 60.7255 39.5143C66.2068 38.0975 73.9689 40.8833 76.255 46.3221L76.2524 46.3194Z" fill="white"/>
</g>
</svg>
